<?xml version="1.0" encoding="utf-8"?>
<!-- Generator: Adobe Illustrator 26.0.3, SVG Export Plug-In . SVG Version: 6.00 Build 0)  -->
<svg version="1.1" id="Слой_1" xmlns="http://www.w3.org/2000/svg" xmlns:xlink="http://www.w3.org/1999/xlink" x="0px" y="0px"
	 viewBox="0 0 476.9 187.5" style="enable-background:new 0 0 476.9 187.5;" xml:space="preserve">
<style type="text/css">
	.st0{fill-rule:evenodd;clip-rule:evenodd;fill:#D9B79A;}
	.st1{fill-rule:evenodd;clip-rule:evenodd;fill:#4A3A2E;}
	.st2{fill:#D9B79A;}
	.st3{fill:#C68B59;}
</style>
<g>
	<path class="st0" d="M63.9,0.3c-7,2.2-8.7,12.4-9.2,18.6c-1.6,18.2,2.8,36.4,7.1,54.2c1.4,5.9,7.1,5.2,6.2-0.9
		c-1.2-8.5-4.8-16.7-6.4-25.1c-1.7-8.4-2.2-22.9,0-31.2c3-11.6,10.6,4.1,11.8,9.5c1.3,5.8,1.9,12,2.4,18c0.4,5.9-0.9,14.4-1,19
		c0.8-0.4,1.6-1.3,1.9-2.3c0.3-1-1.8-2.3,0.1-3.2c0.5,0.4,0.9,0.9,1.4,1.3c1.5-2.1,1.8-4.9,2-7.5c0.9-13.8-1.1-27.7-5.7-40.7
		C73,5.5,69.6-1.5,63.9,0.3z"/>
	<path class="st1" d="M475.9,114.6c-1.1-5.3-3.2-10.3-6.4-14.9c-2.9-4.2-6.5-7.8-10.7-10.7c-13-8.8-31-9.4-44.7-1.8
		c-6.9,3.8-12.7,9.7-16,16.9c-5.1,11-4.1,23.9,2.6,34c6.3,9.5,17.4,15.2,28.7,15.2c9.3,0,18.7-4,24.8-11.1s8.9-17,6.8-26.1
		s-8.9-17.1-17.8-20.1c-8.8-3-19.3-0.9-26,5.6c-5.5,5.3-8.3,13.4-6.6,20.8c1.6,7.4,7.9,13.8,15.4,15c3.7,0.6,7.6,0,11-1.6
		c2.9-1.4,5.4-3.5,7-6.2c1.4-2.3,2-5,1.8-7.7c-0.3-4.1-2.6-8-6.1-10.1c-3.5-2.1-8.2-2.3-11.7-0.2c-1.7,1-3.2,2.5-3.7,4.4
		c-0.2,0.8-0.3,1.7,0.1,2.4c0.3,0.7,1.1,1.3,2,1.2c1.3-0.2,1.8-1.8,2.5-3c1-1.8,3.1-2.9,5.1-2.9c2,0,4,1,5.5,2.4
		c2.7,2.7,3.3,7.1,1.9,10.6c-1.4,3.5-4.7,6.2-8.4,7.1c-5.1,1.4-10.8-0.4-14.5-4.2s-5.3-9.4-4.4-14.6c0.8-5.2,4-9.9,8.3-13
		c6.5-4.6,15.6-5,22.8-1.5c7.1,3.6,12.1,11,13.1,18.9s-2.1,16.2-7.7,21.8c-5.6,5.7-13.7,8.7-21.7,8.6c-10.4-0.2-20.5-6.1-25.9-15
		c-8.3-13.7-4.4-31.3,7.9-41.2c5.4-4.3,12-7.2,18.9-8.1c15.8-2,32.4,6.1,39.7,20.4c2,3.9,3.3,8.1,3.9,12.5c1.7,13-3,26.7-11.3,36.8
		c-7.5,9.1-17.9,14.8-29,18.4c-13.8,4.5-28.3,5.4-42.7,6.3c-19.2,1.2-38.5-0.1-57.5-2.5c-18.9-2.4-37.5-6.9-56.5-8.8
		c-5-0.5-10-0.8-15.1-0.9c-9.8-0.2-19.8,0.4-29.4,2.1c-16.3,2.8-31.8,8.5-47.6,12.9c-5.4,1.5-11.3,1.4-16.9,0.7
		c-6.4-0.7-12.6-2.8-18.2-6c-10.4-6-18.5-16.9-30.7-19.4c-17.9-3.7-36.7,2.6-53.1,9.3c-1.7,0.7-3.4,1.4-5.2,2
		c-8.1,2.9-16.3,6.5-25,6.3c-4.4-0.1-8.8-1.2-12.8-3.1c-6.7-3.3-12.3-9-15.3-15.8c-3.4-7.6-4.1-15.2-2.2-23.4
		c0.7-3.1,1.8-6.2,3.1-9.1c7.1-15.3,20.9-26.6,35.5-34.5c3.3-1.8,6.7-3.4,10.1-5c1.7-0.7,3.4-1.5,5.1-2.2c0.6-0.2,5-1.6,5.1-2.1
		c-0.6,3.5-1.2,7.1-1.8,10.6c-0.9,5.1-1.7,10.2-1.4,15.3c0.4,5.1,2.1,10.3,5.7,14c5.5,5.5,14.3,6.3,22,4.8
		c10.6-2.1,20.4-8.2,27.1-16.7c3.4-4.3,6-9.4,6.9-14.8c0.9-5.4-0.2-11.3-3.5-15.7c-6-7.9-17.3-9.3-27.2-9.1
		c13.5-10.1,27.5-20.8,34.7-36c1.5-3.3,2.8-6.8,2.7-10.4s-1.4-7.4-4.3-9.5c-4-3-9.8-2.3-14.4-0.3c-6.6,2.9-12,7.9-16.8,13.3
		C82,38.9,73.2,54,67.8,70.3c-0.6,1.8-1.2,3.8-2.7,5c-1,0.9-2.3,1.3-3.6,1.7C45.8,82.4,30.7,91.2,19,102.9
		c-5.3,5.3-9.9,10.6-13.2,17.4c-3.7,7.4-6.4,15.4-5.6,23.7c1,10.6,5.4,21.1,13.9,27.8c6.3,5,14.5,7.7,22.5,7.6
		c8.5-0.2,17.2-3.7,25.1-6.7c5-1.9,9.9-3.8,14.8-5.6c16.1-5.8,34.5-10.8,50.4-1.6c5.6,3.3,10.2,8.1,15.5,11.9
		c12.7,9.1,30.2,12.6,45.3,8.2c17.7-5.2,35.2-11.4,53.6-13.3c19.1-2,38.4,0.3,57.3,3.3c18.8,3,37.5,6.8,56.5,8.2c0.2,0,0.4,0,0.6,0
		c18.8,1.3,38.4,1.1,57-2c7.7-1.3,15.5-2.9,22.9-5.4c15.4-5.2,29-15.1,36.2-29.9C476.6,136.6,478.2,125.2,475.9,114.6z M73.5,70.7
		c0.8-2.8,2.8-7.4,3.1-8.1c1.6-3.8,3.4-7.6,5.3-11.2c3.7-7.2,7.9-14.2,13.2-20.3c5-5.7,11.9-12.1,19.5-13.8c1.8-0.4,3.8-0.4,5.3,0.6
		c1.2,0.8,1.9,2.2,2.2,3.6c1.2,6.3-2.9,13.2-6.4,18.1c-8.3,11.5-20,19.9-31.7,28c-3,2-7,5.2-10.8,5.2C72.9,72.9,73.1,72,73.5,70.7z
		 M65.8,102.2c0-4.2,0.8-8.5,1.8-12.6c0.5-1.9,1-3.7,1.6-5.6c0.5-1.6,0.5-3.5,1.7-4.8c0.8-0.9,1.9-1.3,3-1.6c6.3-2,12.7-3.7,19.3-4
		c6-0.3,12.7,0.3,17.5,4.3c3.4,2.8,5.2,7.2,5.4,11.6c0.4,10.2-6.6,18.8-14.3,24.6c-5.7,4.3-12.6,7.2-19.8,7.5
		c-7.8,0.3-13.4-4.4-15.3-11.9C66,107.2,65.8,104.7,65.8,102.2z"/>
	<path class="st1" d="M283.5,75.1c-0.6,0.6-1.2,1.2-1.8,1.7c-2.4,2.1-5,4.1-7.7,5.7c-0.6,0.4-1.3,0.8-2.1,0.8c-1.8,0-2-2.8-3.7-3
		c-2.2-0.2-3.3,3.8-3,5.4c0.8,4.1,5,4.4,8,2.8c3.2-1.6,5.8-4.3,8.3-6.8c2.3-2.3,4.8-4.6,6.7-7.3c0.4-0.6,0.8-1.2,1-1.9
		c0.1-0.3,0.1-0.6,0.1-0.8c-0.2-0.6-0.9-0.8-1.5-0.7c-1.2,0.3-1.9,1.5-2.7,2.4C284.6,74,284,74.5,283.5,75.1z"/>
	<path class="st1" d="M368.7,106.7c-0.6-1-2.2-0.3-3.1,0.5c-4,3.4-8.4,6.2-13.2,8.4c-1.6,0.7-3.7,1.3-5,0.1c-0.9-0.8-1-2.1-0.7-3.3
		s1-2.1,1.6-3.1c1.6-2.6,2.9-5.3,3.8-8.2c0.2-0.8,0.5-1.6,0.4-2.4c-0.1-1.8-1.4-3.4-3-4.1s-3.5-0.7-5.3-0.4
		c-6.1,1.2-10.7,5.9-15.2,10.1c-5.1,4.8-10.7,9.3-17.4,11.3c-1.5,0.4-3.1,0.8-4.6,0.2c-2.7-1.1-3.3-4.5-3.6-7.3
		c-0.1-1.2-0.2-2.5,0.3-3.6c0.4-0.9,1.3-1.5,2.1-2.1c2.6-1.9,5.3-3.5,8.2-4.8c0.9-0.4,1.8-0.8,2.4-1.5c0.6-0.7,1-1.8,0.5-2.6
		c-0.5-0.8-1.6-1.1-2.5-0.9c-0.9,0.2-1.7,0.8-2.5,1.4c-5.5,4.3-11,8.5-16.5,12.8c1.8-3.4,3.5-6.9,5.3-10.3c0.6-1.2,1.1-2.9,0-3.7
		c-1.1-0.8-2.6,0.4-3.5,1.4c-5.6,6.3-12,11.3-18.9,16.1c-0.4,0.3-1.1,0.7-1.5,1.1c-0.4,0.3-1.3,0.8-1.9,1.1
		c-0.6,0.3-1.3,0.6-1.5,0.7c-1.1,0.7-1.8,0.9-3.7,1.5c-2.1,0.6-4.4,0.7-4.7-2.1c-0.1-1.2,0.3-2.4,0.8-3.6c1.5-3.5,3.4-7.3,5.8-10.3
		c0.7-0.9,0.7-1.2-0.3-2.1c-1.5-1.5-2.8-1-5.4,2.2c-5.1,6.4-14.9,15.2-16.9,15.2c-0.7,0-1.3-0.7-1.2-1.3c0.1-0.3,0.3-1.1,0.4-1.8
		c0.1-0.7,0.4-1.5,0.7-1.9c0.2-0.3,0.9-1.5,1.4-2.6c0.6-1.1,1.2-2.2,1.4-2.5s0.6-0.9,0.9-1.4c0.5-0.9,1.2-2,2-3c0.8-1.1,2-3.3,2.1-4
		c0.3-1.4-1-2-2-2.6c-4,2.9-6.6,7.6-10.2,11c-3.6,3.4-7.6,6.4-11.9,8.9c-1.6,0.9-3.3,1.8-5.1,2.4c-1.4,0.4-3.1,0.5-3.9-0.7
		c-0.5-0.8-0.4-1.8-0.2-2.7c0.4-1.9,1.2-3.6,2.2-5.2c0.8-1.2,1.9-2.2,1.8-3.7c-0.1-1.8,1.4-2.4,1.8-3.8c0.5-1.6-1-3.6-2.3-4.4
		c-1.5-1-3.5-1.3-5.3-1.2c-7,0.6-12,6.8-17.4,11.3c-2.9,2.4-6,4.4-9.2,6.2c-3.4,2-7,3.8-10.6,5.6c-0.3,0.1-0.6,0.3-1,0.2
		c-0.4-0.1-0.7-0.3-0.8-0.7c-0.6-1.8-1.5-3.4-3.2-4.4c-0.3-0.2-0.8-0.5-0.8-0.9c0-0.4,0.3-0.7,0.6-1c2.5-2.6,5.2-5.1,6.5-8.5
		c0.5-1.4,0.8-2.9,0.4-4.4c-0.8-2.4-3.7-3.7-6.2-3.3s-4.8,1.8-6.7,3.4c-6.7,5.5-12.2,12.7-20.1,16.3c-0.6,0.3-1.3,0.6-2,0.4
		c-1.8-0.4-1.9-2.9-1.5-4.6c1.1-4.8,2.9-9.4,5.3-13.7c0.5-0.9,1-1.8,0.9-2.8c-0.1-1-1.1-2-2-1.6c-0.4,0.1-0.7,0.5-0.9,0.8
		c-0.8,1-1.5,2.1-2.2,3.1c-0.7-2.8-3.7-4.5-6.6-4.5c-2.9,0-5.5,1.6-7.6,3.5c-2.4,2.3-4.3,5.8-3,8.9c1.2,2.7,4.3,4,7.2,4.2
		c-1.9,2.7-4.3,5-7.2,6.7c-0.9,0.6-2,1.1-3.1,1.1c-1.1,0-2.3-0.6-2.6-1.6c-0.4-1.3,0.4-2.6,1-3.8c0.6-1.2,0.8-3-0.5-3.6
		c-1.2-0.5-2.4,0.7-3.1,1.8c-1,1.9-1.6,4.1-1.2,6.2c0.4,2.1,1.9,4.1,4,4.6c2.1,0.5,4.3-0.5,6.2-1.7c4.2-2.6,7.8-6.1,10.7-10.1
		c1.3,2.8-0.5,6.6,1.4,9c1.8,2.4,5.6,1.7,8.3,0.3c8.3-4.3,13.8-12.7,21.7-17.6c1.5-1,3.8-1.6,4.9-0.2c0.8,1.1,0.3,2.6-0.4,3.8
		c-1.5,2.7-3.7,5.1-6.4,6.9c-1,0.7-2.2,1.3-2.9,2.4c-0.7,1.1-0.6,2.7,0.5,3.3c1.1,0.5,2.3-0.2,3.5,0c2.2,0.2,3.8,3.8,2,5.4
		c-2.1,1.9-4.4,3.9-6.5,5.7c-2.4,1.9-4.5,4-6.4,6.4c-2.6,3.1-4.7,6.6-6.3,10.4c-1.5,3.4-3.2,7.8-0.7,11.2c1.5,2.1,4.5,2.8,7.1,2.3
		c6.1-1.4,11.1-8.2,14-13.4c3.2-5.8,4.9-12.5,4.8-19.1c0-0.9-0.1-1.8,0.3-2.6c0.4-0.9,1.3-1.4,2.2-1.9c5.1-2.9,10.3-5.8,15.4-8.7
		c-0.7,3.1-1,7.2,1.8,8.7c2,1.1,4.4,0.2,6.3-0.8c3.1-1.6,6-3.7,8.7-5.8c-1.1,3.7,1.7,5.6,3.2,6.2c1.6,0.6,3.3,0.8,5,0.4
		c5.8-1.6,11.1-5.2,15.6-9.2c1-0.9,1.5-1.1,1.8-0.7c0.5,0.9-1.2,4.5-1.2,5.6c0,1.2,0.4,2.5,1.4,3.3c1,0.8,2.3,0.9,3.5,0.6
		c3.8-1,7.3-4.6,10.1-7.1c1-0.9,2.5-3,3.2-1.1c0.9,2.2-1.1,4.8,1.1,6.7c0.6,0.5,1.2,0.8,1.9,1c5,1.6,9.7-1.3,13.8-3.9
		c4.7-3,9.2-6.2,13.5-9.8c-1.7,3.5-3.4,6.9-5.1,10.4c-0.4,0.7-0.7,1.5-0.7,2.3c0,0.8,0.5,1.7,1.2,1.8c0.9,0.2,1.7-0.5,2.3-1.1
		c3.4-3.3,6.8-6.7,10.1-10c1.3,2.3,0.5,5.4,1.7,7.7c1,2,3.3,3.1,5.5,3.3c2.2,0.2,4.5-0.4,6.6-1.1c4.2-1.4,8.2-3.4,12-5.8
		c-0.4,2-0.8,4.3,0.4,5.9c1,1.3,2.8,1.9,4.5,1.7s3.2-1,4.7-1.8c2.7-1.5,5.3-3.1,7.8-4.9c-0.9,2.6,1.2,5.5,3.8,6.3
		c2.6,0.8,5.5,0,8-1.2c5-2.3,9.3-5.8,13.6-9.3C368.3,108.5,369.2,107.6,368.7,106.7z M147.2,99.2c-1,2.8-3.2,4.7-5.8,5
		c-1.5,0.2-2.4-0.1-3.3-1c-2-1.8,0.6-7.1,4.2-8.6c1.6-0.7,2.6-0.7,3.6-0.2c0.8,0.4,1.8,1.8,1.8,2.6
		C147.7,97.3,147.5,98.3,147.2,99.2z M178.5,131c-0.3,1.3-0.7,2.5-1.1,3.7c-1.4,4.3-3.5,8.3-6.2,11.9c-1.3,1.7-2.6,3.3-4.4,4.5
		c-1.8,1.3-4.1,2.6-5.9,0.6c-1.6-1.7-0.6-4.4,0-6.2c0.4-1.2,1-2.2,1.5-3.3c1.8-3.3,3.7-6.4,6.3-9.1c1.6-1.7,3.2-3.4,5-4.9
		c0.9-0.8,1.8-1.6,2.7-2.3c0.6-0.5,1.8-1.9,2.5-1c0.7,0.8,0.1,3.3-0.1,4.2C178.9,129.7,178.7,130.3,178.5,131z M219.3,107.3
		c-2.9,2.9-5.9,5.8-9.6,7.7c-1.4,0.7-4,1.6-4.3-0.7c-0.1-0.8,0.3-1.6,0.6-2.4c1.7-3.6,4.1-6.9,7-9.6c2.2-1.9,7.6-6.1,10.7-4.2
		c0.1,0,0.3,0.4,0.5,0.8c1.3,2.5-3,6.3-4.5,7.8C219.6,107,219.4,107.2,219.3,107.3z M345.4,105.1c-0.8,1.1-4.1,4.4-5.7,5.7
		c-0.6,0.5-1.4,1.1-1.8,1.4c-1.8,1.5-4.7,3.1-6.5,3.6c-0.7,0.2-1.1,0.2-1.5,0c-1.5-0.8-1-2.6,2.2-8.1c0.9-1.6,6.7-7.3,7.4-7.3
		c0.2,0,0.6-0.2,1-0.5c1.3-1.1,4.1-1.3,6.1-0.6c1.5,0.5,1.5,2.2,0.2,3.9C346.4,103.7,345.8,104.5,345.4,105.1z"/>
</g>
<circle class="st2" cx="98.7" cy="84.3" r="4.1"/>
<g>
	<path class="st3" d="M197.3,138.4c-0.2,0-0.4,0.1-0.6,0.2c-0.2,0.2-0.2,0.4-0.2,0.6v3.7h-6.6v-3.7c0-0.3-0.1-0.5-0.2-0.6
		c-0.1-0.1-0.3-0.2-0.6-0.2c-0.2,0-0.4,0.1-0.6,0.2c-0.1,0.2-0.2,0.4-0.2,0.6v9c0,0.3,0.1,0.5,0.2,0.6c0.1,0.2,0.3,0.2,0.6,0.2
		c0.2,0,0.4-0.1,0.6-0.2c0.1-0.1,0.2-0.4,0.2-0.6v-3.8h6.6v3.8c0,0.3,0.1,0.5,0.2,0.6c0.2,0.2,0.4,0.2,0.6,0.2
		c0.2,0,0.4-0.1,0.6-0.2c0.1-0.1,0.2-0.4,0.2-0.6v-9c0-0.3-0.1-0.5-0.2-0.6C197.7,138.5,197.5,138.4,197.3,138.4z"/>
	<path class="st3" d="M209.2,139c-0.8-0.5-1.7-0.7-2.8-0.7c-1,0-1.9,0.2-2.8,0.7c-0.8,0.5-1.5,1.1-1.9,1.9c-0.5,0.8-0.7,1.7-0.7,2.8
		c0,1,0.2,2,0.7,2.8c0.5,0.8,1.1,1.5,1.9,1.9s1.7,0.7,2.7,0.7c0.9,0,1.8-0.2,2.5-0.7c0.6-0.3,1-0.8,1.4-1.3v1c0,0.2,0.1,0.4,0.2,0.6
		c0.2,0.2,0.4,0.2,0.6,0.2c0.2,0,0.4-0.1,0.6-0.2c0.2-0.1,0.2-0.3,0.2-0.6v-4.5c0-1-0.3-2-0.7-2.8C210.6,140.1,210,139.5,209.2,139z
		 M209.7,145.7c-0.3,0.6-0.8,1.1-1.3,1.4c-0.6,0.3-1.2,0.5-1.9,0.5c-0.7,0-1.4-0.2-1.9-0.5c-0.6-0.3-1-0.8-1.4-1.4
		c-0.3-0.6-0.5-1.3-0.5-2c0-0.8,0.2-1.4,0.5-2c0.3-0.6,0.8-1.1,1.4-1.4c0.6-0.4,1.2-0.5,1.9-0.5c0.7,0,1.4,0.2,1.9,0.5
		c0.6,0.4,1,0.8,1.3,1.4c0.3,0.6,0.5,1.3,0.5,2C210.2,144.5,210,145.1,209.7,145.7z"/>
	<path class="st3" d="M222.2,143.5c-0.1,0-0.1,0-0.2-0.1c0.2-0.1,0.4-0.2,0.6-0.4c0.6-0.4,0.8-1.1,0.8-1.9c0-0.5-0.1-1-0.4-1.4
		c-0.3-0.4-0.6-0.7-1.1-1c-0.5-0.2-1-0.4-1.6-0.4h-4.8v0c0,0,0,0,0,0c-0.2,0-0.4,0.1-0.6,0.2c-0.1,0.2-0.2,0.3-0.2,0.6v9
		c0,0.3,0.1,0.5,0.2,0.6c0.1,0.2,0.4,0.2,0.6,0.2h4.8c0.7,0,1.3-0.1,1.8-0.4c0.5-0.3,1-0.6,1.3-1.1s0.4-1,0.4-1.6
		c0-0.6-0.1-1.1-0.4-1.5S222.8,143.7,222.2,143.5z M221.5,140.3c0.3,0.3,0.4,0.6,0.4,1c0,0.4-0.1,0.8-0.4,1.1
		c-0.3,0.3-0.6,0.4-1,0.4h-0.1h-1.8h-2.2v-2.9h4C220.8,139.9,221.2,140,221.5,140.3z M221.8,147.1c-0.4,0.3-0.8,0.4-1.4,0.4h-4v-3.3
		h4c0.6,0,1,0.1,1.4,0.4c0.4,0.3,0.5,0.7,0.5,1.2C222.3,146.4,222.2,146.8,221.8,147.1z"/>
	<path class="st3" d="M233.4,138.4H230c-0.7,0-1.4,0.2-2,0.5c-0.6,0.3-1,0.7-1.3,1.3c-0.3,0.5-0.5,1.1-0.5,1.8
		c0,0.7,0.1,1.2,0.4,1.7c0.3,0.5,0.7,0.9,1.2,1.2c0.2,0.1,0.4,0.1,0.6,0.2l-2.2,2.8c-0.1,0.2-0.2,0.3-0.2,0.5c0,0.2,0.1,0.4,0.2,0.5
		c0.1,0.1,0.3,0.2,0.6,0.2s0.5-0.1,0.7-0.3l2.7-3.3h2.4v2.8c0,0.3,0.1,0.5,0.2,0.6c0.1,0.2,0.3,0.2,0.6,0.2c0.2,0,0.4-0.1,0.6-0.2
		c0.1-0.1,0.2-0.3,0.2-0.6v-9c0-0.3-0.1-0.5-0.2-0.6C233.9,138.5,233.7,138.4,233.4,138.4z M232.6,144H230c-0.6,0-1.1-0.2-1.6-0.6
		c-0.4-0.4-0.6-0.9-0.6-1.5c0-0.6,0.2-1.1,0.6-1.5c0.4-0.4,0.9-0.6,1.6-0.6h2.7V144z"/>
	<path class="st3" d="M246.9,143.6l2.7-4c0.1-0.2,0.2-0.4,0.2-0.5c0-0.2-0.1-0.4-0.3-0.5c-0.1-0.1-0.3-0.2-0.5-0.2
		c-0.2,0-0.4,0.1-0.5,0.3l-2.8,4.3h-1.7v-3.7c0-0.3-0.1-0.5-0.2-0.6c-0.2-0.1-0.3-0.2-0.6-0.2c-0.2,0-0.4,0.1-0.6,0.2
		c-0.1,0.2-0.2,0.4-0.2,0.6v3.7h-1.7l-2.8-4.3c-0.1-0.2-0.3-0.3-0.5-0.3c-0.2,0-0.4,0.1-0.6,0.2c-0.2,0.2-0.3,0.3-0.3,0.5
		c0,0.2,0.1,0.4,0.2,0.5l2.7,4l-3,4.2c-0.1,0.2-0.2,0.3-0.2,0.5c0,0.2,0.1,0.4,0.2,0.5c0.1,0.1,0.3,0.2,0.6,0.2
		c0.2,0,0.4-0.1,0.5-0.2l3.2-4.4h1.6v3.8c0,0.2,0.1,0.4,0.2,0.6c0.2,0.2,0.3,0.2,0.6,0.2c0.2,0,0.4-0.1,0.6-0.2
		c0.1-0.1,0.2-0.3,0.2-0.6v-3.8h1.6l3.2,4.4c0.1,0.2,0.3,0.3,0.5,0.2c0.2,0,0.4-0.1,0.6-0.2c0.2-0.2,0.2-0.3,0.2-0.5
		c0-0.2-0.1-0.4-0.2-0.5L246.9,143.6z"/>
	<path class="st3" d="M260.6,138.4c-0.2-0.1-0.4-0.1-0.6,0c-0.2,0.1-0.3,0.2-0.4,0.4l-3.3,7.6l-3.7-7.6c-0.1-0.2-0.2-0.3-0.4-0.4
		c-0.2-0.1-0.4-0.1-0.6,0c-0.2,0.1-0.3,0.2-0.4,0.4c-0.1,0.2-0.1,0.4,0,0.6l4.3,8.7l-0.7,1.6c-0.3,0.8-0.7,1.4-1.1,1.8
		c-0.4,0.4-0.8,0.6-1.2,0.6c-0.2,0-0.3,0-0.5-0.1c-0.1,0-0.3-0.1-0.4-0.2c-0.2-0.1-0.4-0.2-0.6-0.1c-0.2,0-0.4,0.1-0.5,0.3
		c-0.2,0.2-0.2,0.4-0.1,0.6c0.1,0.2,0.2,0.4,0.5,0.5c0.3,0.1,0.5,0.3,0.8,0.3s0.5,0.1,0.8,0.1c0.8,0,1.5-0.3,2.1-0.9
		c0.7-0.6,1.2-1.4,1.6-2.3l4.8-11c0.1-0.2,0.1-0.4,0.1-0.6C260.9,138.6,260.8,138.5,260.6,138.4z"/>
	<path class="st3" d="M276.2,138.4c-0.3,0-0.5,0.1-0.6,0.2c-0.1,0.2-0.2,0.4-0.2,0.6v3.5c0,0.4-0.2,0.8-0.8,1.1
		c-0.5,0.3-1.1,0.4-1.9,0.4c-1,0-1.7-0.3-2.2-0.9c-0.5-0.6-0.7-1.4-0.7-2.4v-1.7c0-0.3-0.1-0.5-0.2-0.6c-0.2-0.1-0.3-0.2-0.6-0.2
		c-0.3,0-0.5,0.1-0.6,0.2c-0.1,0.2-0.2,0.4-0.2,0.6v1.7c0,1,0.2,1.8,0.5,2.5c0.3,0.7,0.8,1.3,1.4,1.7s1.4,0.6,2.4,0.6
		c0.7,0,1.4-0.1,1.9-0.4c0.4-0.2,0.7-0.4,1-0.7v3.5c0,0.3,0.1,0.5,0.2,0.6c0.1,0.2,0.4,0.2,0.6,0.2c0.2,0,0.4-0.1,0.6-0.2
		c0.1-0.1,0.2-0.4,0.2-0.6v-9c0-0.3-0.1-0.5-0.2-0.6C276.7,138.5,276.5,138.4,276.2,138.4z"/>
	<path class="st3" d="M293.8,138.8c-0.6-0.4-1.3-0.5-2-0.5c-0.8,0-1.6,0.2-2.2,0.5c-0.5,0.3-0.9,0.7-1.3,1.2c-0.3-0.5-0.7-1-1.2-1.3
		c-0.6-0.4-1.3-0.5-2-0.5c-0.8,0-1.5,0.2-2,0.5c-0.3,0.2-0.6,0.4-0.8,0.7v-0.3c0-0.2-0.1-0.4-0.2-0.6c-0.2-0.2-0.3-0.2-0.6-0.2
		c-0.3,0-0.5,0.1-0.6,0.2s-0.2,0.4-0.2,0.6v9c0,0.2,0.1,0.4,0.2,0.6c0.1,0.2,0.4,0.2,0.6,0.2c0.2,0,0.4-0.1,0.6-0.2
		c0.1-0.1,0.2-0.3,0.2-0.6v-5.7c0-0.8,0.2-1.5,0.7-2c0.5-0.5,1.1-0.8,1.9-0.8c0.7,0,1.3,0.2,1.8,0.7c0.5,0.5,0.7,1.2,0.7,2.1v5.6
		c0,0.2,0.1,0.4,0.2,0.6c0.2,0.2,0.4,0.2,0.6,0.2c0.2,0,0.4-0.1,0.6-0.2c0.1-0.1,0.2-0.3,0.2-0.6v-5.6c0-0.8,0.2-1.5,0.7-2
		c0.5-0.5,1.1-0.8,1.9-0.8c0.7,0,1.3,0.2,1.8,0.7c0.5,0.5,0.7,1.2,0.7,2.1v5.6c0,0.2,0.1,0.4,0.2,0.6c0.2,0.2,0.4,0.2,0.6,0.2
		c0.2,0,0.4-0.1,0.6-0.2c0.2-0.1,0.2-0.3,0.2-0.6v-5.6c0-0.9-0.2-1.7-0.5-2.3C294.8,139.6,294.4,139.1,293.8,138.8z"/>
	<path class="st3" d="M306.6,139c-0.8-0.5-1.7-0.7-2.8-0.7c-1.1,0-2,0.2-2.8,0.7c-0.8,0.5-1.5,1.1-1.9,1.9c-0.5,0.8-0.7,1.8-0.7,2.8
		c0,1,0.2,2,0.7,2.8c0.5,0.8,1.1,1.5,1.9,1.9c0.8,0.5,1.7,0.7,2.8,0.7c1,0,2-0.2,2.8-0.7c0.8-0.5,1.5-1.1,1.9-1.9
		c0.5-0.8,0.7-1.7,0.7-2.8c0-1.1-0.3-2-0.7-2.8C308,140.1,307.4,139.5,306.6,139z M307.1,145.7c-0.3,0.6-0.8,1.1-1.3,1.4
		c-0.6,0.3-1.2,0.5-2,0.5s-1.4-0.2-2-0.5c-0.6-0.3-1-0.8-1.4-1.4c-0.3-0.6-0.5-1.3-0.5-2c0-0.8,0.2-1.4,0.5-2
		c0.3-0.6,0.8-1.1,1.4-1.4c0.6-0.3,1.2-0.5,2-0.5s1.4,0.2,2,0.5c0.6,0.3,1,0.8,1.3,1.4s0.5,1.3,0.5,2
		C307.6,144.5,307.4,145.2,307.1,145.7z"/>
	<path class="st3" d="M326,138.4c-0.2-0.1-0.4-0.1-0.6,0c-0.2,0.1-0.3,0.2-0.4,0.4l-3.3,7.6l-3.7-7.6c-0.1-0.2-0.2-0.3-0.4-0.4
		c-0.2-0.1-0.4-0.1-0.6,0c-0.2,0.1-0.3,0.2-0.4,0.4c-0.1,0.2-0.1,0.4,0,0.6l4.3,8.7l-0.7,1.6c-0.3,0.8-0.7,1.4-1.1,1.8
		c-0.4,0.4-0.8,0.6-1.2,0.6c-0.2,0-0.3,0-0.5-0.1c-0.1,0-0.3-0.1-0.4-0.2c-0.2-0.1-0.4-0.2-0.6-0.1c-0.2,0-0.4,0.1-0.5,0.3
		c-0.2,0.2-0.2,0.4-0.1,0.6c0.1,0.2,0.2,0.4,0.5,0.5c0.3,0.1,0.5,0.3,0.8,0.3s0.5,0.1,0.8,0.1c0.8,0,1.5-0.3,2.1-0.9
		c0.7-0.6,1.2-1.4,1.6-2.3l4.8-11c0.1-0.2,0.1-0.4,0.1-0.6C326.3,138.6,326.2,138.5,326,138.4z"/>
	<path class="st3" d="M335.5,146.4c-0.2,0.1-0.4,0.2-0.5,0.3c-0.3,0.4-0.7,0.6-1.2,0.8c-0.5,0.2-1.1,0.2-1.7,0.2
		c-0.8,0-1.4-0.1-1.8-0.4c-0.4-0.2-0.6-0.6-0.6-1.1c0-0.5,0.2-0.8,0.6-1.1c0.4-0.3,1.2-0.6,2.2-0.8c1.2-0.3,2.1-0.7,2.6-1.2
		c0.6-0.5,0.8-1.1,0.8-1.8c0-0.6-0.2-1.2-0.5-1.6c-0.3-0.4-0.8-0.8-1.3-1s-1.2-0.3-2-0.3c-0.9,0-1.6,0.2-2.3,0.5s-1.2,0.7-1.6,1.2
		c-0.1,0.2-0.2,0.4-0.1,0.6c0,0.2,0.2,0.4,0.4,0.5c0.1,0.1,0.3,0.1,0.5,0c0.2,0,0.4-0.2,0.5-0.3c0.3-0.3,0.7-0.6,1.1-0.8
		s0.9-0.3,1.5-0.3c0.6,0,1.2,0.1,1.6,0.4c0.4,0.3,0.6,0.6,0.6,1.1c0,0.4-0.2,0.8-0.5,1.1c-0.3,0.3-0.9,0.5-1.8,0.7
		c-0.9,0.2-1.7,0.4-2.3,0.7c-0.6,0.3-1.1,0.7-1.3,1.1c-0.3,0.4-0.4,0.9-0.4,1.4c0,0.6,0.2,1.1,0.5,1.5c0.4,0.4,0.9,0.8,1.5,1
		c0.6,0.2,1.3,0.4,2.1,0.4c0.8,0,1.6-0.1,2.3-0.4c0.8-0.3,1.4-0.7,1.8-1.1c0.2-0.2,0.2-0.4,0.2-0.6c0-0.2-0.1-0.4-0.3-0.5
		C335.9,146.4,335.6,146.3,335.5,146.4z"/>
	<path class="st3" d="M346.5,139c-0.8-0.5-1.7-0.7-2.8-0.7c-1.1,0-2,0.2-2.8,0.7c-0.8,0.5-1.5,1.1-1.9,1.9c-0.5,0.8-0.7,1.8-0.7,2.8
		c0,1,0.2,2,0.7,2.8c0.5,0.8,1.1,1.5,1.9,1.9c0.8,0.5,1.7,0.7,2.8,0.7c1,0,2-0.2,2.8-0.7c0.8-0.5,1.5-1.1,1.9-1.9
		c0.5-0.8,0.7-1.7,0.7-2.8c0-1.1-0.3-2-0.7-2.8C347.9,140.1,347.3,139.5,346.5,139z M347,145.7c-0.3,0.6-0.8,1.1-1.3,1.4
		c-0.6,0.3-1.2,0.5-2,0.5s-1.4-0.2-2-0.5c-0.6-0.3-1-0.8-1.4-1.4c-0.3-0.6-0.5-1.3-0.5-2c0-0.8,0.2-1.4,0.5-2
		c0.3-0.6,0.8-1.1,1.4-1.4c0.6-0.3,1.2-0.5,2-0.5s1.4,0.2,2,0.5c0.6,0.3,1,0.8,1.3,1.4s0.5,1.3,0.5,2
		C347.5,144.5,347.3,145.2,347,145.7z"/>
	<path class="st3" d="M359.7,139c-0.8-0.5-1.7-0.7-2.8-0.7c-1.1,0-2,0.2-2.8,0.7c-0.8,0.5-1.5,1.1-1.9,1.9c-0.5,0.8-0.7,1.8-0.7,2.8
		c0,1.1,0.2,2,0.7,2.8s1.1,1.5,1.8,1.9s1.7,0.7,2.7,0.7c0.9,0,1.7-0.2,2.4-0.7c0.7-0.4,1.2-1,1.6-1.7v0.9c0,0.9-0.2,1.6-0.5,2.2
		c-0.3,0.6-0.8,1.1-1.4,1.4c-0.6,0.3-1.2,0.5-1.9,0.5c-0.8,0-1.4-0.1-2-0.4c-0.6-0.3-1-0.6-1.4-1.1c-0.1-0.2-0.3-0.3-0.5-0.3
		c-0.2,0-0.4,0-0.6,0.1c-0.2,0.1-0.3,0.3-0.3,0.5c0,0.2,0,0.4,0.2,0.6c0.5,0.7,1.2,1.2,2,1.6c0.8,0.4,1.7,0.6,2.7,0.6
		c1.1,0,2-0.2,2.8-0.7c0.8-0.5,1.4-1.2,1.9-2c0.5-0.8,0.7-1.8,0.7-2.8v-4.1c0-1.1-0.3-2-0.7-2.8C361.1,140.1,360.5,139.4,359.7,139z
		 M358.9,147.2c-0.6,0.3-1.2,0.5-2,0.5s-1.4-0.2-2-0.5c-0.6-0.3-1-0.8-1.4-1.4c-0.3-0.6-0.5-1.3-0.5-2s0.2-1.5,0.5-2
		c0.3-0.6,0.8-1.1,1.4-1.4c0.6-0.3,1.2-0.5,2-0.5s1.4,0.2,2,0.5c0.6,0.3,1,0.8,1.3,1.4s0.5,1.3,0.5,2s-0.2,1.4-0.5,2
		S359.4,146.8,358.9,147.2z"/>
	<path class="st3" d="M374.3,138.4c-0.2,0-0.4,0.1-0.6,0.2c-0.2,0.2-0.2,0.4-0.2,0.6v3.7h-6.6v-3.7c0-0.3-0.1-0.5-0.2-0.6
		c-0.2-0.1-0.3-0.2-0.6-0.2c-0.2,0-0.4,0.1-0.6,0.2c-0.1,0.2-0.2,0.4-0.2,0.6v9c0,0.3,0.1,0.5,0.2,0.6c0.1,0.2,0.3,0.2,0.6,0.2
		c0.2,0,0.4-0.1,0.6-0.2c0.1-0.1,0.2-0.4,0.2-0.6v-3.8h6.6v3.8c0,0.3,0.1,0.5,0.2,0.6c0.2,0.2,0.4,0.2,0.6,0.2
		c0.2,0,0.4-0.1,0.6-0.2c0.1-0.1,0.2-0.4,0.2-0.6v-9c0-0.3-0.1-0.5-0.2-0.6C374.8,138.5,374.6,138.4,374.3,138.4z"/>
	<path class="st3" d="M388.2,140.9c-0.5-0.8-1.1-1.5-1.9-1.9c-0.8-0.5-1.7-0.7-2.8-0.7c-1.1,0-2,0.2-2.8,0.7
		c-0.8,0.5-1.5,1.1-1.9,1.9c-0.5,0.8-0.7,1.8-0.7,2.8c0,1,0.2,2,0.7,2.8c0.5,0.8,1.1,1.5,1.9,1.9c0.8,0.5,1.7,0.7,2.8,0.7
		c1,0,2-0.2,2.8-0.7c0.8-0.5,1.5-1.1,1.9-1.9c0.5-0.8,0.7-1.7,0.7-2.8C388.9,142.7,388.6,141.7,388.2,140.9z M386.8,145.7
		c-0.3,0.6-0.8,1.1-1.3,1.4c-0.6,0.3-1.2,0.5-2,0.5s-1.4-0.2-2-0.5c-0.6-0.3-1-0.8-1.4-1.4c-0.3-0.6-0.5-1.3-0.5-2
		c0-0.8,0.2-1.4,0.5-2c0.3-0.6,0.8-1.1,1.4-1.4c0.6-0.3,1.2-0.5,2-0.5s1.4,0.2,2,0.5c0.6,0.3,1,0.8,1.3,1.4s0.5,1.3,0.5,2
		C387.3,144.5,387.1,145.2,386.8,145.7z"/>
</g>
</svg>
